<svg width="432" height="444" viewBox="0 0 432 444" fill="none" xmlns="http://www.w3.org/2000/svg">
<rect y="12" width="432" height="432" rx="89.3793" fill="#010101"/>
<g filter="url(#filter0_if_12655_15666)">
<path d="M71.4538 156.174L60.4893 156.087L60.4893 156.087L71.4538 156.174ZM72.3097 154.686L66.5888 145.332L66.5888 145.332L72.3097 154.686ZM216.331 66.6038L210.61 57.2496L210.61 57.2497L216.331 66.6038ZM337.07 316.487C337.07 322.543 341.979 327.452 348.034 327.452C354.09 327.452 358.999 322.543 358.999 316.487L337.07 316.487ZM218.274 66.6523L212.093 75.7092L212.093 75.7092L218.274 66.6523ZM282.676 110.602L288.857 101.545L288.857 101.545L282.676 110.602ZM347.253 154.672L341.073 163.728L341.073 163.729L347.253 154.672ZM167.043 341.798L71.4616 341.798L71.4616 363.727L167.043 363.727L167.043 341.798ZM71.4616 341.798C77.7088 341.798 80.5396 346.611 80.8042 347.047C81.52 348.225 81.8282 349.254 81.9126 349.538C82.1304 350.269 82.2015 350.82 82.2034 350.833C82.2293 351.014 82.2168 350.984 82.1891 350.563C82.1397 349.81 82.0874 348.549 82.0384 346.733C81.9415 343.148 81.869 337.881 81.8186 331.267C81.718 318.061 81.7069 299.734 81.7517 279.305C81.8414 238.458 82.1547 189.334 82.4184 156.262L60.4893 156.087C60.2254 189.181 59.9119 238.351 59.822 279.257C59.7771 299.703 59.788 318.117 59.8895 331.434C59.9402 338.08 60.0138 343.52 60.1166 347.325C60.1674 349.205 60.2283 350.81 60.3066 352.001C60.3427 352.551 60.3977 353.261 60.4948 353.94C60.5323 354.202 60.64 354.941 60.8953 355.798C60.9984 356.144 61.3256 357.22 62.0606 358.431C62.3444 358.898 65.1947 363.727 71.4616 363.727L71.4616 341.798ZM78.0306 164.04L222.052 75.9579L210.61 57.2497L66.5888 145.332L78.0306 164.04ZM337.07 156.15L337.07 316.487L358.999 316.487L358.999 156.15L337.07 156.15ZM212.093 75.7092L276.496 119.659L288.857 101.545L224.455 57.5954L212.093 75.7092ZM276.496 119.659L341.073 163.728L353.434 145.615L288.857 101.545L276.496 119.659ZM358.999 156.15C358.999 151.935 356.916 147.991 353.434 145.615L341.073 163.729C338.568 162.019 337.07 159.183 337.07 156.15L358.999 156.15ZM222.052 75.9579C218.972 77.8412 215.075 77.7439 212.093 75.7092L224.455 57.5954C220.31 54.7667 214.891 54.6314 210.61 57.2496L222.052 75.9579ZM82.4184 156.262C82.3918 159.598 80.5882 162.476 78.0306 164.04L66.5888 145.332C62.9763 147.541 60.5258 151.513 60.4893 156.087L82.4184 156.262Z" fill="#1987FB"/>
<path d="M359.665 347.139C359.665 353.732 354.409 359.074 347.929 359.074C341.45 359.074 336.194 353.732 336.194 347.139C336.194 340.545 341.45 335.204 347.929 335.204C354.409 335.204 359.665 340.545 359.665 347.139Z" fill="#1987FB" stroke="#1987FB" stroke-width="0.246404"/>
<path d="M153.944 258.528C164.337 254.811 177.208 254.564 189.142 254.563C199.616 257.606 206.782 262.42 213.668 270.857L207.534 276.173C205.124 273.599 201.609 272.887 197.962 272.874C195.259 272.865 192.356 273.246 189.645 273.601C188.516 273.749 187.42 273.892 186.387 274.001C182.603 273.253 177.831 273.285 173.203 273.788C168.53 274.296 163.947 275.291 160.603 276.487C153.901 278.884 148.152 283.342 144.165 289.233C140.178 295.124 138.154 302.151 138.375 309.325C138.597 316.498 141.052 323.458 145.395 329.226C149.759 335.024 155.879 338.654 162.678 340.847C169.422 343.022 175.719 344.261 183.144 343.507L183.146 343.507L183.276 343.51C183.39 343.513 183.558 343.517 183.773 343.523C184.203 343.533 184.821 343.548 185.575 343.564C187.081 343.596 189.129 343.634 191.293 343.66C195.596 343.712 200.433 343.713 202.337 343.502C202.423 343.492 202.636 343.521 202.939 343.988C203.233 344.44 203.504 345.157 203.706 346.097C204.108 347.966 204.198 350.532 203.808 353.124C203.417 355.719 202.555 358.273 201.11 360.161C199.683 362.026 197.686 363.25 194.931 363.25C190.421 363.25 185.207 363.532 179.99 363.813C177.355 363.956 174.72 364.098 172.174 364.204C168.367 364.363 164.752 364.441 161.604 364.323C158.444 364.204 155.805 363.889 153.925 363.283C148.694 361.596 144.518 358.214 140.779 354.085C138.052 351.073 135.592 347.705 133.128 344.33C132.199 343.06 131.271 341.788 130.327 340.534C123.568 331.556 119.748 320.726 119.404 309.568C119.06 298.411 122.208 287.487 128.404 278.333C134.599 269.179 143.531 262.253 153.944 258.528Z" fill="#1987FB" stroke="#1987FB" stroke-width="1.34264"/>
<path d="M191.734 272.862C192.282 273.53 192.999 274.043 193.831 274.276C203.04 276.861 219.866 275.89 232.861 275.139C238.371 274.821 243.193 274.543 246.452 274.592C257.764 274.764 268.787 271.407 277.972 264.993C287.156 258.58 294.04 249.432 297.655 238.837C301.27 228.242 301.435 216.732 298.126 205.925C294.817 195.119 288.201 185.56 279.208 178.592C270.215 171.624 259.297 167.598 247.99 167.08C236.683 166.562 222.605 170.026 213.221 176.152C204.894 181.588 196.802 190.43 193.563 204.184C192.898 207.01 195.231 209.538 198.133 209.407L212.264 208.768C214.132 208.683 215.746 207.482 216.537 205.788C219.01 200.492 222.6 195.973 227.575 192.726C233.417 188.912 240.345 187.034 247.385 187.357C254.425 187.679 261.223 190.186 266.822 194.524C272.421 198.863 276.54 204.814 278.601 211.543C280.661 218.271 280.558 225.437 278.308 232.034C276.057 238.631 271.771 244.326 266.052 248.32C260.514 252.188 253.924 253.109 247.116 253.066C246.676 253.064 246.257 253.119 245.825 253.2C238.876 254.505 206.316 254.481 187.637 253.825C183.355 253.675 180.505 259.164 183.221 262.476L191.734 272.862Z" fill="#1987FB"/>
<path d="M191.734 272.862C192.282 273.53 192.999 274.043 193.831 274.276C203.04 276.861 219.866 275.89 232.861 275.139C238.371 274.821 243.193 274.543 246.452 274.592C257.764 274.764 268.787 271.407 277.972 264.993C287.156 258.58 294.04 249.432 297.655 238.837C301.27 228.242 301.435 216.732 298.126 205.925C294.817 195.119 288.201 185.56 279.208 178.592C270.215 171.624 259.297 167.598 247.99 167.08C236.683 166.562 222.605 170.026 213.221 176.152C204.894 181.588 196.802 190.43 193.563 204.184C192.898 207.01 195.231 209.538 198.133 209.407L212.264 208.768C214.132 208.683 215.746 207.482 216.537 205.788C219.01 200.492 222.6 195.973 227.575 192.726C233.417 188.912 240.345 187.034 247.385 187.357C254.425 187.679 261.223 190.186 266.822 194.524C272.421 198.863 276.54 204.814 278.601 211.543C280.661 218.271 280.558 225.437 278.308 232.034C276.057 238.631 271.771 244.326 266.052 248.32C260.514 252.188 253.924 253.109 247.116 253.066C246.676 253.064 246.257 253.119 245.825 253.2C238.876 254.505 206.316 254.481 187.637 253.825C183.355 253.675 180.505 259.164 183.221 262.476L191.734 272.862Z" stroke="#1987FB"/>
<path d="M193.285 206.425C193.285 203.842 195.378 201.749 197.96 201.749L211.126 201.749C213.708 201.749 215.801 203.842 215.801 206.425L215.801 316.239C215.801 318.821 213.708 320.914 211.126 320.914L197.96 320.914C195.378 320.914 193.285 318.821 193.285 316.239L193.285 206.425Z" fill="#1987FB"/>
<path d="M193.285 206.425C193.285 203.842 195.378 201.749 197.96 201.749L211.126 201.749C213.708 201.749 215.801 203.842 215.801 206.425L215.801 316.239C215.801 318.821 213.708 320.914 211.126 320.914L197.96 320.914C195.378 320.914 193.285 318.821 193.285 316.239L193.285 206.425Z" stroke="#1987FB"/>
</g>
<g filter="url(#filter1_f_12655_15666)">
<path d="M71.4538 159.274L60.4893 159.187L60.4893 159.187L71.4538 159.274ZM72.3097 157.786L66.5888 148.432L66.5888 148.432L72.3097 157.786ZM216.331 69.7039L210.61 60.3497L210.61 60.3498L216.331 69.7039ZM337.07 319.588C337.07 325.643 341.979 330.552 348.034 330.552C354.09 330.552 358.999 325.643 358.999 319.588L337.07 319.588ZM218.274 69.7524L212.093 78.8093L212.093 78.8093L218.274 69.7524ZM282.676 113.702L288.857 104.645L288.857 104.645L282.676 113.702ZM347.253 157.772L341.073 166.829L341.073 166.829L347.253 157.772ZM167.043 344.898L71.4616 344.898L71.4616 366.828L167.043 366.828L167.043 344.898ZM71.4616 344.898C77.7088 344.898 80.5396 349.711 80.8042 350.147C81.52 351.325 81.8282 352.354 81.9126 352.638C82.1304 353.369 82.2015 353.92 82.2034 353.933C82.2293 354.114 82.2168 354.084 82.1891 353.663C82.1397 352.91 82.0874 351.649 82.0384 349.833C81.9415 346.248 81.869 340.981 81.8186 334.367C81.718 321.161 81.7069 302.834 81.7517 282.405C81.8414 241.558 82.1547 192.434 82.4184 159.362L60.4893 159.187C60.2254 192.281 59.9119 241.451 59.822 282.357C59.7771 302.804 59.788 321.218 59.8895 334.534C59.9402 341.18 60.0138 346.62 60.1166 350.425C60.1674 352.305 60.2283 353.911 60.3066 355.101C60.3427 355.651 60.3977 356.361 60.4948 357.04C60.5323 357.302 60.64 358.041 60.8953 358.898C60.9984 359.244 61.3256 360.321 62.0606 361.531C62.3444 361.998 65.1947 366.828 71.4616 366.828L71.4616 344.898ZM78.0306 167.14L222.052 79.058L210.61 60.3498L66.5888 148.432L78.0306 167.14ZM337.07 159.25L337.07 319.588L358.999 319.588L358.999 159.25L337.07 159.25ZM212.093 78.8093L276.496 122.759L288.857 104.645L224.455 60.6955L212.093 78.8093ZM276.496 122.759L341.073 166.829L353.434 148.715L288.857 104.645L276.496 122.759ZM358.999 159.25C358.999 155.035 356.916 151.091 353.434 148.715L341.073 166.829C338.568 165.119 337.07 162.283 337.07 159.25L358.999 159.25ZM222.052 79.058C218.972 80.9413 215.075 80.844 212.093 78.8093L224.455 60.6955C220.31 57.8668 214.891 57.7315 210.61 60.3497L222.052 79.058ZM82.4184 159.362C82.3918 162.699 80.5882 165.576 78.0306 167.14L66.5888 148.432C62.9763 150.641 60.5258 154.613 60.4893 159.187L82.4184 159.362Z" fill="#1987FB"/>
<path d="M359.665 350.248C359.665 356.842 354.409 362.183 347.929 362.183C341.45 362.183 336.194 356.842 336.194 350.248C336.194 343.655 341.45 338.313 347.929 338.313C354.409 338.313 359.665 343.655 359.665 350.248Z" fill="#198CFB" stroke="#1987FB" stroke-width="0.246404"/>
<path d="M153.944 261.622C164.337 257.904 177.208 257.657 189.142 257.656C199.616 260.699 206.782 265.514 213.668 273.95L207.534 279.266C205.124 276.692 201.609 275.98 197.962 275.968C195.259 275.959 192.356 276.339 189.645 276.694C188.516 276.842 187.42 276.986 186.387 277.095C182.603 276.346 177.831 276.379 173.203 276.882C168.53 277.39 163.947 278.384 160.603 279.581C153.901 281.978 148.152 286.435 144.165 292.327C140.178 298.218 138.154 305.245 138.375 312.418C138.597 319.591 141.052 326.551 145.395 332.32C149.759 338.118 155.879 341.748 162.678 343.94C169.422 346.115 175.719 347.354 183.144 346.6L183.146 346.6L183.276 346.604C183.39 346.607 183.558 346.611 183.773 346.616C184.203 346.627 184.821 346.641 185.575 346.657C187.081 346.689 189.129 346.728 191.293 346.754C195.596 346.805 200.433 346.807 202.337 346.595C202.423 346.586 202.636 346.615 202.939 347.082C203.233 347.533 203.504 348.25 203.706 349.19C204.108 351.059 204.198 353.626 203.808 356.217C203.417 358.813 202.555 361.366 201.11 363.255C199.683 365.12 197.686 366.344 194.931 366.344C190.421 366.344 185.207 366.625 179.99 366.907C177.355 367.049 174.72 367.191 172.174 367.298C168.367 367.456 164.752 367.535 161.604 367.416C158.444 367.298 155.805 366.982 153.925 366.376C148.694 364.689 144.518 361.308 140.779 357.178C138.052 354.167 135.592 350.798 133.128 347.424C132.199 346.153 131.271 344.881 130.327 343.628C123.568 334.649 119.748 323.819 119.404 312.662C119.06 301.504 122.208 290.581 128.404 281.427C134.599 272.272 143.531 265.346 153.944 261.622Z" fill="#1987FB" stroke="#1987FB" stroke-width="1.34264"/>
<path d="M191.734 275.956C192.282 276.623 192.999 277.136 193.831 277.37C203.04 279.955 219.866 278.983 232.861 278.233C238.371 277.915 243.193 277.636 246.452 277.686C257.764 277.857 268.787 274.5 277.972 268.087C287.156 261.673 294.04 252.526 297.655 241.93C301.27 231.335 301.435 219.825 298.126 209.019C294.817 198.212 288.201 188.653 279.208 181.685C270.215 174.718 259.297 170.692 247.99 170.173C236.683 169.655 222.605 173.119 213.221 179.245C204.894 184.681 196.802 193.523 193.563 207.278C192.898 210.104 195.231 212.632 198.133 212.501L212.264 211.862C214.132 211.777 215.746 210.576 216.537 208.881C219.01 203.585 222.6 199.067 227.575 195.819C233.417 192.005 240.345 190.128 247.385 190.45C254.425 190.773 261.223 193.28 266.822 197.618C272.421 201.956 276.54 207.908 278.601 214.636C280.661 221.364 280.558 228.531 278.308 235.128C276.057 241.724 271.771 247.42 266.052 251.413C260.514 255.281 253.924 256.203 247.116 256.16C246.676 256.157 246.257 256.212 245.825 256.293C238.876 257.598 206.316 257.575 187.637 256.919C183.355 256.768 180.505 262.257 183.221 265.57L191.734 275.956Z" fill="#1987FB"/>
<path d="M191.734 275.956C192.282 276.623 192.999 277.136 193.831 277.37C203.04 279.955 219.866 278.983 232.861 278.233C238.371 277.915 243.193 277.636 246.452 277.686C257.764 277.857 268.787 274.5 277.972 268.087C287.156 261.673 294.04 252.526 297.655 241.93C301.27 231.335 301.435 219.825 298.126 209.019C294.817 198.212 288.201 188.653 279.208 181.685C270.215 174.718 259.297 170.692 247.99 170.173C236.683 169.655 222.605 173.119 213.221 179.245C204.894 184.681 196.802 193.523 193.563 207.278C192.898 210.104 195.231 212.632 198.133 212.501L212.264 211.862C214.132 211.777 215.746 210.576 216.537 208.881C219.01 203.585 222.6 199.067 227.575 195.819C233.417 192.005 240.345 190.128 247.385 190.45C254.425 190.773 261.223 193.28 266.822 197.618C272.421 201.956 276.54 207.908 278.601 214.636C280.661 221.364 280.558 228.531 278.308 235.128C276.057 241.724 271.771 247.42 266.052 251.413C260.514 255.281 253.924 256.203 247.116 256.16C246.676 256.157 246.257 256.212 245.825 256.293C238.876 257.598 206.316 257.575 187.637 256.919C183.355 256.768 180.505 262.257 183.221 265.57L191.734 275.956Z" stroke="#1987FB"/>
<path d="M193.285 209.518C193.285 206.936 195.378 204.843 197.96 204.843L211.126 204.843C213.708 204.843 215.801 206.936 215.801 209.518L215.801 319.332C215.801 321.915 213.708 324.008 211.126 324.008L197.96 324.008C195.378 324.008 193.285 321.915 193.285 319.332L193.285 209.518Z" fill="#1987FB"/>
<path d="M193.285 209.518C193.285 206.936 195.378 204.843 197.96 204.843L211.126 204.843C213.708 204.843 215.801 206.936 215.801 209.518L215.801 319.332C215.801 321.915 213.708 324.008 211.126 324.008L197.96 324.008C195.378 324.008 193.285 321.915 193.285 319.332L193.285 209.518Z" stroke="#1987FB"/>
</g>
<g filter="url(#filter2_f_12655_15666)">
<path d="M74.5242 156.184L85.4887 156.271L85.4887 156.271L74.5242 156.184ZM75.38 154.695L69.6591 145.341L69.6591 145.341L75.38 154.695ZM219.401 66.6133L213.68 57.2592L213.68 57.2592L219.401 66.6133ZM340.14 316.497C340.14 322.553 345.049 327.462 351.104 327.462C357.16 327.462 362.069 322.553 362.069 316.497L340.14 316.497ZM221.344 66.6618L215.163 75.7187L215.163 75.7187L221.344 66.6618ZM285.746 110.612L291.927 101.555L291.927 101.555L285.746 110.612ZM350.323 154.681L344.143 163.738L344.143 163.738L350.323 154.681ZM170.113 341.807L74.5319 341.807L74.5319 363.737L170.113 363.737L170.113 341.807ZM74.5319 341.807C80.7791 341.807 83.6099 346.621 83.8745 347.056C84.5903 348.235 84.8985 349.264 84.9829 349.547C85.2007 350.278 85.2718 350.829 85.2737 350.842C85.2996 351.023 85.2871 350.993 85.2594 350.572C85.21 349.819 85.1577 348.558 85.1087 346.742C85.0118 343.157 84.9393 337.891 84.8889 331.276C84.7883 318.071 84.7772 299.744 84.822 279.314C84.9118 238.467 85.225 189.343 85.4887 156.271L63.5596 156.096C63.2958 189.191 62.9822 238.361 62.8923 279.266C62.8474 299.713 62.8583 318.127 62.9598 331.443C63.0105 338.09 63.0841 343.529 63.1869 347.335C63.2377 349.214 63.2987 350.82 63.3769 352.01C63.413 352.56 63.468 353.271 63.5651 353.949C63.6026 354.211 63.7103 354.95 63.9656 355.807C64.0687 356.153 64.3959 357.23 65.1309 358.44C65.4147 358.907 68.265 363.737 74.5319 363.737L74.5319 341.807ZM81.1009 164.049L225.122 75.9674L213.68 57.2592L69.6591 145.341L81.1009 164.049ZM340.14 156.16L340.14 316.497L362.069 316.497L362.069 156.16L340.14 156.16ZM215.163 75.7187L279.566 119.669L291.927 101.555L227.525 57.6049L215.163 75.7187ZM279.566 119.669L344.143 163.738L356.504 145.624L291.927 101.555L279.566 119.669ZM362.069 156.16C362.069 151.944 359.986 148 356.504 145.624L344.143 163.738C341.638 162.029 340.14 159.192 340.14 156.16L362.069 156.16ZM225.122 75.9675C222.043 77.8508 218.145 77.7535 215.163 75.7187L227.525 57.605C223.38 54.7762 217.961 54.6409 213.68 57.2592L225.122 75.9675ZM85.4887 156.271C85.4621 159.608 83.6585 162.485 81.101 164.049L69.6591 145.341C66.0466 147.551 63.5961 151.523 63.5596 156.096L85.4887 156.271Z" fill="#EEEEEE"/>
<path d="M362.735 347.148C362.735 353.742 357.479 359.083 350.999 359.083C344.52 359.083 339.264 353.742 339.264 347.148C339.264 340.555 344.52 335.213 350.999 335.213C357.479 335.213 362.735 340.555 362.735 347.148Z" fill="#EEEEEE" stroke="#EEEEEE" stroke-width="0.246404"/>
<path d="M157.046 258.498C167.439 254.781 180.31 254.534 192.243 254.533C202.717 257.576 209.884 262.39 216.769 270.827L210.635 276.143C208.226 273.569 204.711 272.857 201.064 272.844C198.361 272.835 195.457 273.216 192.747 273.571C191.617 273.719 190.522 273.862 189.488 273.971C185.704 273.223 180.932 273.255 176.305 273.758C171.632 274.266 167.049 275.261 163.704 276.457C157.003 278.854 151.254 283.312 147.267 289.203C143.28 295.094 141.256 302.121 141.477 309.295C141.698 316.468 144.153 323.427 148.496 329.196C152.861 334.994 158.98 338.624 165.779 340.817C172.524 342.992 178.82 344.231 186.246 343.477L186.247 343.477L186.377 343.48C186.492 343.483 186.66 343.487 186.875 343.492C187.304 343.503 187.923 343.517 188.676 343.534C190.183 343.566 192.23 343.604 194.395 343.63C198.698 343.681 203.534 343.683 205.439 343.472C205.524 343.462 205.737 343.491 206.041 343.958C206.334 344.41 206.605 345.127 206.808 346.067C207.209 347.936 207.299 350.502 206.909 353.094C206.518 355.689 205.657 358.243 204.211 360.131C202.784 361.996 200.787 363.22 198.033 363.22C193.522 363.22 188.309 363.502 183.092 363.783C180.457 363.926 177.821 364.068 175.275 364.174C171.468 364.333 167.854 364.411 164.705 364.293C161.545 364.174 158.906 363.859 157.026 363.252C151.796 361.566 147.619 358.184 143.88 354.055C141.154 351.043 138.694 347.675 136.229 344.3C135.301 343.029 134.372 341.758 133.428 340.504C126.669 331.526 122.85 320.696 122.506 309.538C122.162 298.381 125.31 287.457 131.505 278.303C137.701 269.149 146.633 262.223 157.046 258.498Z" fill="#EEEEEE" stroke="#EEEEEE" stroke-width="1.34264"/>
<path d="M194.836 272.84C195.383 273.507 196.101 274.02 196.933 274.254C206.142 276.839 222.968 275.867 235.962 275.117C241.473 274.799 246.294 274.52 249.554 274.57C260.866 274.741 271.889 271.384 281.073 264.971C290.258 258.557 297.142 249.41 300.757 238.814C304.372 228.219 304.536 216.709 301.227 205.903C297.918 195.096 291.302 185.537 282.309 178.569C273.316 171.602 262.399 167.576 251.092 167.057C239.785 166.539 225.706 170.003 216.323 176.129C207.995 181.565 199.904 190.407 196.665 204.162C195.999 206.988 198.333 209.516 201.235 209.385L215.365 208.746C217.234 208.661 218.848 207.46 219.639 205.765C222.112 200.469 225.702 195.951 230.676 192.703C236.519 188.889 243.447 187.012 250.487 187.334C257.527 187.657 264.324 190.164 269.923 194.502C275.523 198.84 279.642 204.792 281.702 211.52C283.763 218.248 283.66 225.415 281.409 232.012C279.158 238.608 274.872 244.304 269.154 248.297C263.615 252.165 257.026 253.087 250.217 253.044C249.778 253.041 249.359 253.096 248.927 253.177C241.978 254.482 209.417 254.459 190.739 253.802C186.457 253.652 183.607 259.141 186.322 262.454L194.836 272.84Z" fill="#EEEEEE"/>
<path d="M194.836 272.84C195.383 273.507 196.101 274.02 196.933 274.254C206.142 276.839 222.968 275.867 235.962 275.117C241.473 274.799 246.294 274.52 249.554 274.57C260.866 274.741 271.889 271.384 281.073 264.971C290.258 258.557 297.142 249.41 300.757 238.814C304.372 228.219 304.536 216.709 301.227 205.903C297.918 195.096 291.302 185.537 282.309 178.569C273.316 171.602 262.399 167.576 251.092 167.057C239.785 166.539 225.706 170.003 216.323 176.129C207.995 181.565 199.904 190.407 196.665 204.162C195.999 206.988 198.333 209.516 201.235 209.385L215.365 208.746C217.234 208.661 218.848 207.46 219.639 205.765C222.112 200.469 225.702 195.951 230.676 192.703C236.519 188.889 243.447 187.012 250.487 187.334C257.527 187.657 264.324 190.164 269.923 194.502C275.523 198.84 279.642 204.792 281.702 211.52C283.763 218.248 283.66 225.415 281.409 232.012C279.158 238.608 274.872 244.304 269.154 248.297C263.615 252.165 257.026 253.087 250.217 253.044C249.778 253.041 249.359 253.096 248.927 253.177C241.978 254.482 209.417 254.459 190.739 253.802C186.457 253.652 183.607 259.141 186.322 262.454L194.836 272.84Z" stroke="#EEEEEE"/>
<path d="M196.387 206.396C196.387 203.814 198.48 201.721 201.062 201.721L214.227 201.721C216.809 201.721 218.902 203.814 218.902 206.396L218.902 316.21C218.902 318.793 216.809 320.886 214.227 320.886L201.062 320.886C198.48 320.886 196.387 318.793 196.387 316.21L196.387 206.396Z" fill="#EEEEEE"/>
<path d="M196.387 206.396C196.387 203.814 198.48 201.721 201.062 201.721L214.227 201.721C216.809 201.721 218.902 203.814 218.902 206.396L218.902 316.21C218.902 318.793 216.809 320.886 214.227 320.886L201.062 320.886C198.48 320.886 196.387 318.793 196.387 316.21L196.387 206.396Z" stroke="#EEEEEE"/>
</g>
<path d="M71.4538 159.274L82.4184 159.362L82.4184 159.362L71.4538 159.274ZM72.3097 157.786L66.5888 148.432L66.5888 148.432L72.3097 157.786ZM216.331 69.7039L210.61 60.3497L210.61 60.3498L216.331 69.7039ZM337.069 319.587C337.069 325.643 341.978 330.552 348.034 330.552C354.09 330.552 358.999 325.643 358.999 319.587L337.069 319.587ZM218.274 69.7524L212.093 78.8093L212.093 78.8093L218.274 69.7524ZM282.676 113.702L288.857 104.645L288.857 104.645L282.676 113.702ZM347.253 157.772L341.072 166.828L341.073 166.829L347.253 157.772ZM167.043 344.898L71.4616 344.898L71.4616 366.827L167.043 366.827L167.043 344.898ZM71.4616 344.898C77.7088 344.898 80.5396 349.711 80.8042 350.147C81.52 351.325 81.8282 352.354 81.9126 352.638C82.1304 353.369 82.2015 353.92 82.2034 353.933C82.2293 354.114 82.2168 354.084 82.1891 353.662C82.1397 352.91 82.0874 351.649 82.0384 349.833C81.9415 346.248 81.869 340.981 81.8186 334.367C81.718 321.161 81.7069 302.834 81.7517 282.405C81.8414 241.558 82.1547 192.434 82.4184 159.362L60.4893 159.187C60.2254 192.281 59.9119 241.451 59.822 282.357C59.7771 302.803 59.788 321.217 59.8895 334.534C59.9402 341.18 60.0138 346.62 60.1166 350.425C60.1674 352.305 60.2283 353.91 60.3066 355.101C60.3427 355.651 60.3977 356.361 60.4948 357.04C60.5323 357.301 60.64 358.04 60.8953 358.898C60.9984 359.244 61.3256 360.32 62.0606 361.53C62.3444 361.998 65.1947 366.827 71.4616 366.827L71.4616 344.898ZM78.0306 167.14L222.052 79.058L210.61 60.3498L66.5888 148.432L78.0306 167.14ZM337.069 159.25L337.069 319.587L358.999 319.587L358.999 159.25L337.069 159.25ZM212.093 78.8093L276.495 122.759L288.857 104.645L224.455 60.6955L212.093 78.8093ZM276.495 122.759L341.072 166.828L353.434 148.715L288.857 104.645L276.495 122.759ZM358.999 159.25C358.999 155.035 356.916 151.091 353.434 148.715L341.073 166.829C338.568 165.119 337.069 162.283 337.069 159.25L358.999 159.25ZM222.052 79.058C218.972 80.9413 215.075 80.844 212.093 78.8093L224.455 60.6955C220.31 57.8668 214.891 57.7315 210.61 60.3497L222.052 79.058ZM82.4184 159.362C82.3918 162.699 80.5882 165.576 78.0306 167.14L66.5888 148.432C62.9763 150.641 60.5258 154.613 60.4893 159.187L82.4184 159.362Z" fill="#EEEEEE"/>
<path d="M359.665 350.248C359.665 356.842 354.409 362.183 347.929 362.183C341.45 362.183 336.194 356.842 336.194 350.248C336.194 343.655 341.45 338.313 347.929 338.313C354.409 338.313 359.665 343.655 359.665 350.248Z" fill="#EEEEEE" stroke="#EEEEEE" stroke-width="0.246404"/>
<path d="M153.944 261.622C164.337 257.905 177.208 257.658 189.142 257.657C199.616 260.699 206.782 265.514 213.667 273.95L207.534 279.266C205.124 276.692 201.609 275.98 197.962 275.968C195.259 275.959 192.356 276.339 189.645 276.694C188.516 276.842 187.42 276.986 186.387 277.095C182.603 276.346 177.83 276.379 173.203 276.882C168.53 277.39 163.947 278.385 160.603 279.581C153.901 281.978 148.152 286.436 144.165 292.327C140.178 298.218 138.154 305.245 138.375 312.418C138.597 319.592 141.052 326.551 145.395 332.32C149.759 338.118 155.879 341.748 162.678 343.941C169.422 346.116 175.719 347.354 183.144 346.6L183.146 346.601L183.276 346.604C183.39 346.607 183.558 346.611 183.773 346.616C184.203 346.627 184.821 346.641 185.574 346.657C187.081 346.69 189.129 346.728 191.293 346.754C195.596 346.805 200.433 346.807 202.337 346.596C202.423 346.586 202.636 346.615 202.939 347.082C203.233 347.534 203.504 348.25 203.706 349.191C204.108 351.059 204.198 353.626 203.807 356.218C203.417 358.813 202.555 361.366 201.11 363.255C199.683 365.12 197.686 366.344 194.931 366.344C190.421 366.344 185.207 366.626 179.99 366.907C177.355 367.049 174.72 367.192 172.174 367.298C168.367 367.456 164.752 367.535 161.604 367.417C158.444 367.298 155.805 366.983 153.925 366.376C148.694 364.689 144.517 361.308 140.779 357.178C138.052 354.167 135.592 350.798 133.128 347.424C132.199 346.153 131.271 344.882 130.327 343.628C123.568 334.65 119.748 323.82 119.404 312.662C119.06 301.504 122.208 290.581 128.404 281.427C134.599 272.273 143.531 265.347 153.944 261.622Z" fill="#EEEEEE" stroke="#EEEEEE" stroke-width="1.34264"/>
<path d="M191.734 275.956C192.282 276.623 193 277.136 193.831 277.37C203.041 279.955 219.866 278.983 232.861 278.233C238.371 277.915 243.193 277.636 246.452 277.686C257.764 277.857 268.787 274.5 277.972 268.087C287.156 261.673 294.04 252.526 297.655 241.93C301.27 231.335 301.435 219.825 298.126 209.019C294.817 198.212 288.201 188.653 279.208 181.685C270.215 174.718 259.297 170.692 247.99 170.173C236.683 169.655 222.605 173.119 213.221 179.245C204.894 184.681 196.802 193.523 193.563 207.278C192.898 210.104 195.231 212.632 198.133 212.501L212.264 211.861C214.132 211.777 215.746 210.576 216.537 208.881C219.01 203.585 222.6 199.067 227.575 195.819C233.417 192.005 240.345 190.128 247.385 190.45C254.425 190.773 261.223 193.28 266.822 197.618C272.421 201.956 276.541 207.908 278.601 214.636C280.661 221.364 280.559 228.531 278.308 235.128C276.057 241.724 271.771 247.42 266.053 251.413C260.514 255.281 253.924 256.203 247.116 256.16C246.676 256.157 246.257 256.212 245.826 256.293C238.876 257.598 206.316 257.574 187.637 256.918C183.355 256.768 180.506 262.257 183.221 265.57L191.734 275.956Z" fill="#EEEEEE"/>
<path d="M191.734 275.956C192.282 276.623 193 277.136 193.831 277.37C203.041 279.955 219.866 278.983 232.861 278.233C238.371 277.915 243.193 277.636 246.452 277.686C257.764 277.857 268.787 274.5 277.972 268.087C287.156 261.673 294.04 252.526 297.655 241.93C301.27 231.335 301.435 219.825 298.126 209.019C294.817 198.212 288.201 188.653 279.208 181.685C270.215 174.718 259.297 170.692 247.99 170.173C236.683 169.655 222.605 173.119 213.221 179.245C204.894 184.681 196.802 193.523 193.563 207.278C192.898 210.104 195.231 212.632 198.133 212.501L212.264 211.861C214.132 211.777 215.746 210.576 216.537 208.881C219.01 203.585 222.6 199.067 227.575 195.819C233.417 192.005 240.345 190.128 247.385 190.45C254.425 190.773 261.223 193.28 266.822 197.618C272.421 201.956 276.541 207.908 278.601 214.636C280.661 221.364 280.559 228.531 278.308 235.128C276.057 241.724 271.771 247.42 266.053 251.413C260.514 255.281 253.924 256.203 247.116 256.16C246.676 256.157 246.257 256.212 245.826 256.293C238.876 257.598 206.316 257.574 187.637 256.918C183.355 256.768 180.506 262.257 183.221 265.57L191.734 275.956Z" stroke="#EEEEEE"/>
<path d="M193.285 209.518C193.285 206.936 195.378 204.843 197.96 204.843L211.126 204.843C213.708 204.843 215.801 206.936 215.801 209.518L215.801 319.333C215.801 321.915 213.708 324.008 211.126 324.008L197.96 324.008C195.378 324.008 193.285 321.915 193.285 319.333L193.285 209.518Z" fill="#EEEEEE"/>
<path d="M193.285 209.518C193.285 206.936 195.378 204.843 197.96 204.843L211.126 204.843C213.708 204.843 215.801 206.936 215.801 209.518L215.801 319.333C215.801 321.915 213.708 324.008 211.126 324.008L197.96 324.008C195.378 324.008 193.285 321.915 193.285 319.333L193.285 209.518Z" stroke="#EEEEEE"/>
<defs>
<filter id="filter0_if_12655_15666" x="36.4849" y="32.064" width="358.117" height="356.299" filterUnits="userSpaceOnUse" color-interpolation-filters="sRGB">
<feFlood flood-opacity="0" result="BackgroundImageFix"/>
<feBlend mode="normal" in="SourceGraphic" in2="BackgroundImageFix" result="shape"/>
<feColorMatrix in="SourceAlpha" type="matrix" values="0 0 0 0 0 0 0 0 0 0 0 0 0 0 0 0 0 0 127 0" result="hardAlpha"/>
<feOffset dx="96.3562" dy="18.6496"/>
<feGaussianBlur stdDeviation="17.4063"/>
<feComposite in2="hardAlpha" operator="arithmetic" k2="-1" k3="1"/>
<feColorMatrix type="matrix" values="0 0 0 0 0 0 0 0 0 0 0 0 0 0 0 0 0 0 0.25 0"/>
<feBlend mode="normal" in2="shape" result="effect1_innerShadow_12655_15666"/>
<feGaussianBlur stdDeviation="11.656" result="effect2_foregroundBlur_12655_15666"/>
</filter>
<filter id="filter1_f_12655_15666" x="1.67229" y="0.351486" width="416.241" height="425.918" filterUnits="userSpaceOnUse" color-interpolation-filters="sRGB">
<feFlood flood-opacity="0" result="BackgroundImageFix"/>
<feBlend mode="normal" in="SourceGraphic" in2="BackgroundImageFix" result="shape"/>
<feGaussianBlur stdDeviation="29.0623" result="effect1_foregroundBlur_12655_15666"/>
</filter>
<filter id="filter2_f_12655_15666" x="41.1093" y="33.6276" width="343.508" height="353.151" filterUnits="userSpaceOnUse" color-interpolation-filters="sRGB">
<feFlood flood-opacity="0" result="BackgroundImageFix"/>
<feBlend mode="normal" in="SourceGraphic" in2="BackgroundImageFix" result="shape"/>
<feGaussianBlur stdDeviation="10.8789" result="effect1_foregroundBlur_12655_15666"/>
</filter>
</defs>
</svg>
